<?xml version="1.0" standalone="no"?>
<!DOCTYPE svg PUBLIC "-//W3C//DTD SVG 20010904//EN"
 "http://www.w3.org/TR/2001/REC-SVG-20010904/DTD/svg10.dtd">
<svg version="1.0" xmlns="http://www.w3.org/2000/svg"
 width="400.000000pt" height="400.000000pt" viewBox="0 0 400.000000 400.000000"
 preserveAspectRatio="xMidYMid meet">

<g transform="translate(0.000000,400.000000) scale(0.100000,-0.100000)"
fill="#000000" stroke="none">
<path d="M1920 3574 c-36 -31 -94 -82 -130 -114 -36 -32 -78 -69 -95 -82 -16
-12 -36 -29 -44 -36 -7 -7 -67 -59 -133 -115 -66 -56 -143 -122 -172 -147 -28
-25 -71 -61 -95 -80 -24 -19 -51 -42 -60 -51 -9 -9 -63 -56 -119 -104 -57 -47
-112 -94 -121 -103 -27 -25 -131 -114 -160 -137 -14 -10 -28 -22 -31 -25 -3
-3 -39 -34 -80 -70 -41 -36 -77 -68 -80 -71 -3 -3 -32 -28 -65 -55 -33 -26
-65 -53 -71 -58 -14 -13 -85 -74 -229 -197 -60 -52 -125 -107 -143 -124 l-33
-31 82 -69 c45 -38 87 -74 93 -80 13 -12 137 -119 216 -186 100 -84 199 -169
227 -195 15 -14 59 -51 98 -82 38 -31 75 -62 80 -68 11 -11 182 -160 269 -232
50 -42 103 -87 201 -173 28 -23 58 -50 69 -58 10 -9 31 -27 47 -41 15 -14 35
-31 43 -37 68 -57 368 -314 396 -340 19 -18 54 -46 78 -64 l42 -31 0 1656 c0
911 -3 1656 -7 1656 -5 0 -37 -26 -73 -56z m-260 -1611 c0 -469 -3 -853 -6
-853 -8 0 -82 59 -139 111 -22 20 -94 83 -160 139 -66 56 -145 123 -175 150
-30 26 -147 126 -259 221 -298 254 -289 245 -270 261 41 33 266 223 280 237 9
9 38 35 65 57 220 187 284 242 319 273 23 20 62 54 89 76 50 42 87 73 122 106
78 70 119 98 126 86 4 -6 8 -396 8 -864z"/>
<path d="M2386 3293 c-8 -8 -8 -1333 0 -1333 7 0 166 131 195 159 8 9 35 32
60 53 113 94 129 107 142 119 8 8 31 28 51 44 62 50 148 123 236 200 25 22 58
50 73 61 33 27 34 37 2 58 -13 9 -32 24 -42 34 -10 10 -51 47 -92 83 -41 35
-82 71 -91 79 -10 8 -28 24 -41 35 -13 11 -42 35 -64 54 -22 18 -60 50 -84 70
-24 20 -51 43 -60 51 -9 9 -45 40 -81 70 -36 29 -72 60 -80 69 -35 37 -118
100 -124 94z"/>
<path d="M3433 2337 c-21 -17 -49 -42 -63 -54 -14 -12 -72 -61 -130 -110 -58
-48 -119 -100 -135 -114 -17 -15 -154 -131 -305 -259 -290 -245 -348 -295
-392 -337 l-28 -26 0 -394 c0 -330 2 -393 14 -386 7 4 38 29 67 54 30 26 88
75 129 109 41 35 80 68 85 74 10 11 108 94 148 126 11 8 27 22 36 31 9 8 61
53 116 100 55 46 107 91 115 100 8 9 44 40 80 70 36 30 67 56 70 59 3 3 45 39
95 80 49 41 97 82 105 90 9 8 36 32 60 52 25 20 57 47 72 60 14 13 35 30 45
38 55 47 252 217 273 237 14 13 28 23 32 23 25 0 -5 35 -94 110 -97 81 -122
104 -178 153 -14 12 -52 45 -85 72 -33 28 -66 56 -73 63 -17 16 -14 17 -59
-21z"/>
</g>
</svg>
